# xmcd
#
# Track frame offsets:
#	150
#	16295
#	28003
#	33165
#	42449
#	47061
#	49741
#	53666
#	56372
#	60179
#	65778
#	70280
#	72411
#	77147
#	83290
#	87113
#	96340
#	99387
#	102894
#	111780
#	122655
#	136559
#	141185
#	146588
#	151675
#	159474
#	168040
#	175367
#	180534
#	187410
#	193811
#	195282
#	197342
#
# Disc length: 2740 seconds
#
# Revision: 1
# Processed by: cddbd v1.5.2PL0 Copyright (c) Steve Scherf et al.
# Submitted via: audiograbber 1.83.01
#
DISCID=b50ab221
DTITLE=–¡Õ‘¡∆«” [2006] CD1 - LIVE
DYEAR=2006
DGENRE=
TTITLE0=INTRO
TTITLE1=DEN PEIRAZEI
TTITLE2=PALI ESY
TTITLE3=EGW DEN EIMAI EGW
TTITLE4=KAPOY KAPOY SE 8YMAMAI
TTITLE5=NA XA PETRINH KARDIA
TTITLE6=NA EIXA TO KOYRAGIO
TTITLE7=ENA OMORFO AMAXI
TTITLE8=AGAPIOMASTE
TTITLE9=AGAPAW AGAPAW
TTITLE10=O SALONIKIOS
TTITLE11=KATSE FRONIMA
TTITLE12=DHMHTROYLA MOY
TTITLE13=DE ME PONAS
TTITLE14=AFILOTIMH
TTITLE15=TRELA8HKA
TTITLE16=FEYGONTAS NA PAREIS O,TI UES
TTITLE17=MA POY NA PAV
TTITLE18=EISAI O,TI KALYTERO
TTITLE19=EKEINH
TTITLE20=TA LOYLOYDIA STHN KYRIA
TTITLE21=KARDIOPA8EIES
TTITLE22=8A STA VGALW TA MATAKIA
TTITLE23=ETSI
TTITLE24=AS TON TRELO STHN TRELA TOU
TTITLE25=EFTA NOMA S' ENA DWMA
TTITLE26=EINAI H AGAPH IERO
TTITLE27=POSO MOU LEIPEIS
TTITLE28=S' AGAPW
TTITLE29=GAI PRWTH FORA
TTITLE30=E3AKOLOY8W
TTITLE31=TARAXH
TTITLE32=SE NOSTALGW
EXTD=
EXTT0=
EXTT1=
EXTT2=
EXTT3=
EXTT4=
EXTT5=
EXTT6=
EXTT7=
EXTT8=
EXTT9=
EXTT10=
EXTT11=
EXTT12=
EXTT13=
EXTT14=
EXTT15=
EXTT16=
EXTT17=
EXTT18=
EXTT19=
EXTT20=
EXTT21=
EXTT22=
EXTT23=
EXTT24=
EXTT25=
EXTT26=
EXTT27=
EXTT28=
EXTT29=
EXTT30=
EXTT31=
EXTT32=
PLAYORDER=
